<svg width="32" height="32" viewBox="0 0 32 32" xmlns="http://www.w3.org/2000/svg">
  <!-- Background circle -->
  <circle cx="16" cy="16" r="15" fill="#FFA500" stroke="#FF8C00" stroke-width="2"/>
  
  <!-- Face -->
  <circle cx="16" cy="16" r="12" fill="#FFD700"/>
  
  <!-- Eyes -->
  <circle cx="12" cy="12" r="2" fill="#FFFFFF"/>
  <circle cx="20" cy="12" r="2" fill="#FFFFFF"/>
  <circle cx="12" cy="12" r="1.2" fill="#000000"/>
  <circle cx="20" cy="12" r="1.2" fill="#000000"/>
  <circle cx="12.3" cy="11.7" r="0.4" fill="#FFFFFF"/>
  <circle cx="20.3" cy="11.7" r="0.4" fill="#FFFFFF"/>
  
  <!-- Smile -->
  <path d="M 10 18 Q 16 24 22 18" stroke="#FF4500" stroke-width="2" fill="none" stroke-linecap="round"/>
  
  <!-- Tongue -->
  <ellipse cx="16" cy="20" rx="2" ry="1" fill="#FF6B6B"/>
  
  <!-- Bib/Apron -->
  <path d="M 12 22 L 20 22 L 18 28 L 14 28 Z" fill="#E6F3FF" stroke="#87CEEB" stroke-width="1"/>
  
  <!-- Cherry on bib -->
  <circle cx="16" cy="25" r="1" fill="#FF0000"/>
  <path d="M 16 24 Q 17 23 18 24" stroke="#228B22" stroke-width="0.5" fill="none"/>
  
  <!-- Leaf accent -->
  <path d="M 6 8 Q 8 6 10 8 Q 8 10 6 8" fill="#32CD32"/>
</svg>